<svg xmlns="http://www.w3.org/2000/svg" viewBox="0 0 3.495 0.831"><defs><style>.fil2,.fil3{fill-rule:nonzero}.fil3{fill:#f08519}.fil2{fill:#fafcff}</style></defs><g id="Layer_x0020_4"><g id="_2261935612848"><path d="M.421.024a.395.395 0 1 1 0 .79.395.395 0 0 1 0-.79z" fill="#102c63"/><path d="M.421.074c.152 0 .281.098.327.234H.623a.23.23 0 0 0-.424.053h.562a.345.345 0 0 1-.667.168H.22A.23.23 0 0 0 .364.64V.476H.082a.345.345 0 0 1 .34-.402zM.48.64A.23.23 0 0 0 .643.476H.48V.64z" fill="#fff"/><path class="fil2" d="M.908.363L.985.355a.094.094 0 0 0 .029.058.085.085 0 0 0 .057.018.093.093 0 0 0 .058-.016.048.048 0 0 0 .02-.038.036.036 0 0 0-.009-.024.065.065 0 0 0-.028-.017.91.91 0 0 0-.064-.017.215.215 0 0 1-.09-.04A.103.103 0 0 1 .924.2.09.09 0 0 1 .94.144a.107.107 0 0 1 .049-.04.195.195 0 0 1 .077-.013c.05 0 .086.01.111.032a.117.117 0 0 1 .04.088l-.08.003C1.133.194 1.126.179 1.115.17c-.011-.009-.028-.013-.05-.013A.09.09 0 0 0 1.01.17.029.029 0 0 0 1 .195a.03.03 0 0 0 .011.024c.01.008.035.017.073.026.039.01.067.019.086.028a.11.11 0 0 1 .043.04c.01.017.016.038.016.063a.116.116 0 0 1-.072.108.222.222 0 0 1-.086.014C1.02.498.982.486.956.463a.15.15 0 0 1-.048-.1z"/><path id="1" class="fil2" d="M1.65.49h-.085L1.53.402h-.158l-.033.09h-.085l.153-.394h.085L1.65.49zM1.506.336L1.45.189l-.053.146h.108z"/><path id="2" class="fil2" d="M1.672.363L1.75.355a.094.094 0 0 0 .028.058.085.085 0 0 0 .057.018.093.093 0 0 0 .058-.016.048.048 0 0 0 .02-.038.036.036 0 0 0-.009-.024.065.065 0 0 0-.028-.017.91.91 0 0 0-.063-.017.215.215 0 0 1-.09-.04.103.103 0 0 1-.036-.08c0-.02.006-.038.017-.056a.107.107 0 0 1 .049-.04A.195.195 0 0 1 1.83.09c.05 0 .087.01.112.032A.117.117 0 0 1 1.98.21L1.9.213c-.003-.02-.01-.035-.022-.044C1.87.16 1.852.156 1.83.156a.09.09 0 0 0-.053.014.029.029 0 0 0-.013.025c0 .009.004.017.012.024.01.008.034.017.073.026a.49.49 0 0 1 .085.028.11.11 0 0 1 .044.04c.01.017.015.038.015.063a.116.116 0 0 1-.072.108.222.222 0 0 1-.085.014.172.172 0 0 1-.115-.035.15.15 0 0 1-.048-.1z"/><path id="3" class="fil3" d="M2.149.49V.164h-.117V.097h.313v.066h-.117v.328z"/><path id="4" class="fil3" d="M2.437.49h-.075V.206h.07v.04a.119.119 0 0 1 .032-.037A.06.06 0 0 1 2.497.2c.017 0 .034.005.05.014L2.523.28a.066.066 0 0 0-.035-.012c-.01 0-.02.003-.027.009-.007.005-.013.016-.017.031a.448.448 0 0 0-.007.096V.49z"/><path id="5" class="fil3" d="M2.636.293L2.567.281a.108.108 0 0 1 .04-.062.144.144 0 0 1 .084-.02.18.18 0 0 1 .075.012.075.075 0 0 1 .035.03c.007.013.01.035.01.068L2.81.397c0 .025.001.044.004.056a.16.16 0 0 0 .013.038h-.075a.278.278 0 0 1-.01-.031.135.135 0 0 1-.04.028.117.117 0 0 1-.048.01.097.097 0 0 1-.07-.024.08.08 0 0 1-.024-.06.075.075 0 0 1 .044-.072.255.255 0 0 1 .06-.018.412.412 0 0 0 .073-.019V.298a.047.047 0 0 0-.01-.032c-.008-.006-.022-.01-.042-.01a.053.053 0 0 0-.031.009.055.055 0 0 0-.018.028zm.1.061a.475.475 0 0 1-.045.012.142.142 0 0 0-.041.013.032.032 0 0 0-.015.027c0 .01.004.02.012.027a.041.041 0 0 0 .03.012.066.066 0 0 0 .039-.014.048.048 0 0 0 .018-.025.151.151 0 0 0 .003-.037V.354z"/><path id="6" class="fil3" d="M3.147.49h-.07V.45a.117.117 0 0 1-.04.037.104.104 0 0 1-.049.012.11.11 0 0 1-.084-.04.162.162 0 0 1-.036-.11c0-.049.012-.086.035-.111a.112.112 0 0 1 .169.002V.097h.075V.49zM2.946.344c0 .03.004.052.013.066a.057.057 0 0 0 .095.007c.012-.015.018-.037.018-.066 0-.033-.006-.057-.018-.071A.056.056 0 0 0 3.01.257a.057.057 0 0 0-.045.021c-.012.015-.018.036-.018.065z"/><path id="7" class="fil3" d="M3.387.4l.075.013a.124.124 0 0 1-.046.063.135.135 0 0 1-.078.022c-.05 0-.086-.016-.11-.049A.164.164 0 0 1 3.2.351c0-.048.012-.085.037-.112A.122.122 0 0 1 3.33.2c.043 0 .076.014.1.042.025.028.037.071.036.13h-.189c0 .022.007.04.018.052A.057.057 0 0 0 3.34.44a.046.046 0 0 0 .03-.01.06.06 0 0 0 .018-.03zM3.39.325c0-.022-.006-.039-.017-.05a.052.052 0 0 0-.039-.017.052.052 0 0 0-.04.018.07.07 0 0 0-.016.05h.112z"/><path id="8" class="fil2" d="M.898.7h.013v.003c0 .004 0 .008.002.01a.017.017 0 0 0 .01.008.036.036 0 0 0 .013.003.054.054 0 0 0 .018-.006C.96.714.961.71.961.706A.013.013 0 0 0 .957.697.062.062 0 0 0 .94.687.134.134 0 0 1 .923.679a.031.031 0 0 1-.01-.01.024.024 0 0 1 .001-.025.026.026 0 0 1 .013-.009.048.048 0 0 1 .018-.003.04.04 0 0 1 .02.004.02.02 0 0 1 .012.01.026.026 0 0 1 .004.014v.002H.968V.656A.017.017 0 0 0 .954.644a.033.033 0 0 0-.01-.001.026.026 0 0 0-.017.004.012.012 0 0 0-.005.01c0 .003 0 .005.002.007a.02.02 0 0 0 .007.005.262.262 0 0 0 .016.008.108.108 0 0 1 .015.008.025.025 0 0 1 .008.008.025.025 0 0 1 0 .027.032.032 0 0 1-.013.01.05.05 0 0 1-.02.005A.047.047 0 0 1 .91.727C.902.721.899.713.899.7z"/><path id="9" class="fil2" d="M1.034.719c-.009.01-.018.014-.027.014A.019.019 0 0 1 .994.73.015.015 0 0 1 .989.717c0-.003 0-.008.002-.015l.01-.041h.012l-.01.046A.044.044 0 0 0 1 .716c0 .002.001.004.003.005.001.002.004.003.007.003s.007-.001.01-.003a.027.027 0 0 0 .01-.007.035.035 0 0 0 .006-.01.088.088 0 0 0 .003-.012L1.046.66h.012l-.016.07h-.011l.003-.01z"/><path id="10" class="fil2" d="M1.056.76l.02-.1h.011l-.002.01a.045.045 0 0 1 .012-.008.023.023 0 0 1 .01-.003c.007 0 .013.003.017.007a.034.034 0 0 1 .007.022.053.053 0 0 1-.013.035.038.038 0 0 1-.011.008.026.026 0 0 1-.011.002.02.02 0 0 1-.02-.013l-.008.04h-.012zM1.08.702v.01a.015.015 0 0 0 .014.01.018.018 0 0 0 .018-.011.05.05 0 0 0 .008-.023.02.02 0 0 0-.005-.014.014.014 0 0 0-.01-.005c-.004 0-.007 0-.01.002a.025.025 0 0 0-.007.008.044.044 0 0 0-.005.012.042.042 0 0 0-.002.012z"/><path id="11" class="fil2" d="M1.132.76l.02-.1h.012l-.002.01a.045.045 0 0 1 .011-.008.023.023 0 0 1 .01-.003c.007 0 .013.003.018.007.004.005.006.012.006.022a.053.053 0 0 1-.013.035.038.038 0 0 1-.01.008.026.026 0 0 1-.012.002c-.008 0-.015-.004-.02-.013l-.008.04h-.012zm.024-.057l.001.01a.015.015 0 0 0 .014.01c.008 0 .013-.003.018-.011a.05.05 0 0 0 .006-.024.02.02 0 0 0-.004-.014.014.014 0 0 0-.011-.005c-.003 0-.006 0-.009.002a.025.025 0 0 0-.007.008.044.044 0 0 0-.006.012.042.042 0 0 0-.002.012z"/><path id="12" class="fil2" d="M1.216.705A.05.05 0 0 1 1.23.67a.034.034 0 0 1 .025-.01c.009 0 .016.003.021.008a.03.03 0 0 1 .008.022.053.053 0 0 1-.005.023.037.037 0 0 1-.033.021A.032.032 0 0 1 1.23.73a.024.024 0 0 1-.01-.01.03.03 0 0 1-.004-.015zM1.23.704c0 .006.001.011.004.015a.016.016 0 0 0 .013.005.022.022 0 0 0 .015-.006.032.032 0 0 0 .005-.008.042.042 0 0 0 .004-.009.042.042 0 0 0 .002-.012.021.021 0 0 0-.005-.015.016.016 0 0 0-.012-.006.02.02 0 0 0-.01.003.028.028 0 0 0-.009.008.035.035 0 0 0-.006.012.05.05 0 0 0-.001.013z"/><path id="13" class="fil2" d="M1.29.732L1.307.66h.01l-.002.014a.05.05 0 0 1 .01-.012.018.018 0 0 1 .011-.004c.003 0 .006 0 .01.003l-.006.01A.011.011 0 0 0 1.333.67c-.004 0-.008.002-.013.007a.054.054 0 0 0-.01.025l-.007.029h-.011z"/><path id="14" class="fil2" d="M1.365.722l-.002.01a.033.033 0 0 1-.008.001.017.017 0 0 1-.012-.003.01.01 0 0 1-.003-.008l.002-.01L1.35.67h-.01l.003-.01h.01l.003-.017.014-.008-.006.026h.012L1.374.67h-.012l-.008.04a.074.074 0 0 0-.001.008v.004h.005a.03.03 0 0 0 .007 0z"/><path id="15" class="fil2" d="M1.414.732l.021-.099h.031l.013.001c.005 0 .009.002.012.004a.02.02 0 0 1 .007.008.023.023 0 0 1 .002.01.024.024 0 0 1-.004.015.027.027 0 0 1-.014.01c.006.001.01.004.012.007a.02.02 0 0 1 .004.013c0 .005-.001.01-.005.015a.032.032 0 0 1-.012.012.038.038 0 0 1-.018.004h-.049zM1.44.676h.021c.01 0 .017-.002.022-.005a.015.015 0 0 0 .006-.013c0-.003 0-.006-.002-.008a.012.012 0 0 0-.005-.004.04.04 0 0 0-.013-.001h-.022l-.007.03zM1.43.72h.037a.028.028 0 0 0 .01-.004A.019.019 0 0 0 1.485.7c0-.005-.002-.008-.005-.01-.003-.003-.008-.004-.017-.004h-.026L1.43.72z"/><path id="16" class="fil2" d="M1.5.76V.747l.008.001a.01.01 0 0 0 .006-.002.028.028 0 0 0 .007-.008l.004-.007L1.513.66h.012l.005.035a.466.466 0 0 1 .003.022L1.565.66h.012l-.045.08a.052.052 0 0 1-.012.016.019.019 0 0 1-.011.004c-.003 0-.006 0-.009-.002z"/><path id="17" class="fil2" d="M1.613.732l.02-.099h.032l.013.001c.004 0 .008.002.011.004a.02.02 0 0 1 .008.008.023.023 0 0 1 .002.01.024.024 0 0 1-.004.015.027.027 0 0 1-.014.01.02.02 0 0 1 .012.007.02.02 0 0 1 .004.013.03.03 0 0 1-.005.015.032.032 0 0 1-.012.012.038.038 0 0 1-.018.004h-.049zm.025-.056h.021c.01 0 .017-.002.021-.005a.015.015 0 0 0 .007-.013c0-.003 0-.006-.002-.008a.012.012 0 0 0-.006-.004.04.04 0 0 0-.012-.001h-.022l-.007.03zm-.01.045h.037a.028.028 0 0 0 .01-.004.019.019 0 0 0 .01-.016c0-.005-.002-.008-.005-.01-.004-.004-.01-.005-.018-.005h-.026L1.629.72z"/><path id="18" class="fil2" d="M1.721.647l.003-.014h.012l-.003.014h-.012zm-.018.085L1.718.66h.012l-.014.07h-.013z"/><path id="19" class="fil2" d="M1.734.732L1.75.66h.011l-.002.012a.058.058 0 0 1 .013-.01.027.027 0 0 1 .013-.004.02.02 0 0 1 .014.005.017.017 0 0 1 .005.012c0 .003 0 .007-.002.013l-.01.043H1.78l.01-.045a.05.05 0 0 0 .002-.01L1.788.671 1.781.67a.025.025 0 0 0-.017.007.042.042 0 0 0-.01.023l-.008.033h-.012z"/><path id="20" class="fil2" d="M1.859.723a.048.048 0 0 1-.012.008.032.032 0 0 1-.013.002.022.022 0 0 1-.016-.005.02.02 0 0 1-.006-.015.02.02 0 0 1 .01-.018.032.032 0 0 1 .011-.004A.123.123 0 0 1 1.85.69a.057.057 0 0 0 .016-.003L1.867.68a.008.008 0 0 0-.003-.007A.02.02 0 0 0 1.85.67a.022.022 0 0 0-.013.003.02.02 0 0 0-.007.01L1.82.681a.032.032 0 0 1 .012-.016.035.035 0 0 1 .02-.006c.01 0 .016.002.022.006a.015.015 0 0 1 .005.013L1.877.69l-.004.017a.067.067 0 0 0-.002.014l.001.01H1.86a.045.045 0 0 1 0-.008zm.004-.027a.111.111 0 0 1-.015.003.074.074 0 0 0-.015.002.012.012 0 0 0-.007.004.012.012 0 0 0-.002.007.01.01 0 0 0 .004.009c.002.002.005.003.01.003a.024.024 0 0 0 .02-.012.052.052 0 0 0 .005-.016z"/><path id="21" class="fil2" d="M1.887.732L1.902.66h.011L1.91.675a.05.05 0 0 1 .01-.012.018.018 0 0 1 .012-.004.01.01 0 0 1 .008.003l-.004.01a.011.011 0 0 0-.007-.001.017.017 0 0 0-.014.007.054.054 0 0 0-.01.025l-.006.029h-.012z"/><path id="22" class="fil2" d="M1.928.76L1.93.747l.007.001a.01.01 0 0 0 .006-.002A.028.028 0 0 0 1.95.74l.004-.007L1.94.661h.012l.005.035a.466.466 0 0 1 .003.022L1.993.66h.013L1.96.74a.052.052 0 0 1-.012.016.019.019 0 0 1-.011.004c-.003 0-.006 0-.009-.002z"/><path id="23" class="fil2" d="M1.995.732l.003-.014h.014l-.003.014z"/><path id="24" class="fil2" d="M2.079.706l.012.001a.04.04 0 0 1-.013.02.03.03 0 0 1-.019.006.025.025 0 0 1-.019-.007.029.029 0 0 1-.007-.021.06.06 0 0 1 .005-.023.034.034 0 0 1 .033-.023c.007 0 .013.002.018.006.004.005.007.01.007.018h-.012a.014.014 0 0 0-.004-.01.014.014 0 0 0-.01-.004.019.019 0 0 0-.013.005.03.03 0 0 0-.009.014.059.059 0 0 0-.003.018c0 .006.002.01.004.014a.013.013 0 0 0 .01.004.018.018 0 0 0 .012-.004.03.03 0 0 0 .008-.014z"/><path id="25" class="fil2" d="M2.1.705A.05.05 0 0 1 2.114.67.034.034 0 0 1 2.14.66c.008 0 .015.003.02.008a.03.03 0 0 1 .008.022.053.053 0 0 1-.005.023.037.037 0 0 1-.033.021.032.032 0 0 1-.015-.003.024.024 0 0 1-.01-.01A.03.03 0 0 1 2.1.705zm.013-.001c0 .006.001.011.005.015a.016.016 0 0 0 .012.005.022.022 0 0 0 .015-.006.032.032 0 0 0 .006-.008.042.042 0 0 0 .003-.009.042.042 0 0 0 .002-.012.021.021 0 0 0-.004-.015.016.016 0 0 0-.013-.006.02.02 0 0 0-.01.003.028.028 0 0 0-.009.008.035.035 0 0 0-.005.012.05.05 0 0 0-.002.013z"/><path id="26" class="fil2" d="M2.175.732L2.19.66h.012L2.2.672a.048.048 0 0 1 .012-.01.024.024 0 0 1 .011-.003c.005 0 .008.001.011.004a.017.017 0 0 1 .006.01.04.04 0 0 1 .012-.01.026.026 0 0 1 .013-.004c.005 0 .01.001.013.004a.016.016 0 0 1 .004.012.06.06 0 0 1-.001.011l-.01.046h-.012l.01-.047.001-.008c0-.003 0-.005-.002-.006A.009.009 0 0 0 2.262.67a.022.022 0 0 0-.012.003.024.024 0 0 0-.008.009.058.058 0 0 0-.006.016L2.23.732h-.012l.01-.048.001-.007c0-.002 0-.004-.002-.006A.008.008 0 0 0 2.22.67a.022.022 0 0 0-.01.003.026.026 0 0 0-.01.01.054.054 0 0 0-.006.016l-.007.034h-.012z"/><path fill="none" d="M0 0h3.495v.831H0z"/></g></g></svg>