<svg xmlns="http://www.w3.org/2000/svg" viewBox="0 0 3.585 0.852"><defs><style>.fil2,.fil3{fill:#102c63;fill-rule:nonzero}.fil3{fill:#f08519}</style></defs><g id="Layer_x0020_4"><g id="_2261929738544"><path d="M.432.024a.405.405 0 1 1 0 .81.405.405 0 0 1 0-.81z" fill="#102c63"/><path d="M.432.076c.156 0 .288.1.335.24H.64A.235.235 0 0 0 .204.37h.577a.354.354 0 0 1-.684.172h.129C.256.598.31.64.373.657V.488h-.29a.354.354 0 0 1 .35-.413zm.06.58A.236.236 0 0 0 .66.489H.491v.169z" fill="#fff"/><path class="fil2" d="M.931.372l.08-.007a.097.097 0 0 0 .029.058.088.088 0 0 0 .059.019.092.092 0 0 0 .059-.017.05.05 0 0 0 .02-.039.037.037 0 0 0-.009-.024.066.066 0 0 0-.029-.018.933.933 0 0 0-.065-.017.22.22 0 0 1-.092-.04.106.106 0 0 1-.037-.082.11.11 0 0 1 .068-.099.2.2 0 0 1 .08-.014c.05 0 .088.011.113.034a.12.12 0 0 1 .04.09l-.081.002a.08.08 0 0 0-.022-.045C1.132.164 1.115.16 1.092.16a.092.092 0 0 0-.055.014.03.03 0 0 0-.013.026c0 .01.004.017.012.024a.21.21 0 0 0 .075.027c.04.01.069.02.088.03.019.01.034.023.044.04a.12.12 0 0 1 .016.065.119.119 0 0 1-.073.11.228.228 0 0 1-.088.015C1.047.51 1.008.499.98.475A.154.154 0 0 1 .931.372z"/><path id="1" class="fil2" d="M1.693.503h-.088L1.57.411h-.162l-.034.092h-.086L1.445.1h.086l.162.404zm-.15-.16l-.056-.15-.054.15h.11z"/><path id="2" class="fil2" d="M1.715.372l.08-.007a.097.097 0 0 0 .029.058.088.088 0 0 0 .059.019.092.092 0 0 0 .059-.017.05.05 0 0 0 .02-.039.037.037 0 0 0-.009-.024.066.066 0 0 0-.029-.018.933.933 0 0 0-.065-.017.22.22 0 0 1-.092-.04.106.106 0 0 1-.037-.082.11.11 0 0 1 .068-.099.2.2 0 0 1 .08-.014c.05 0 .088.011.113.034a.12.12 0 0 1 .04.09L1.95.218a.08.08 0 0 0-.022-.045C1.916.164 1.899.16 1.876.16a.092.092 0 0 0-.055.014.03.03 0 0 0-.013.026c0 .01.004.017.012.024a.21.21 0 0 0 .075.027c.04.01.069.02.088.03.019.01.034.023.044.04a.12.12 0 0 1 .017.065.119.119 0 0 1-.074.11.228.228 0 0 1-.088.015.175.175 0 0 1-.118-.036.154.154 0 0 1-.049-.103z"/><path id="3" class="fil3" d="M2.204.503V.168h-.12V.099h.32v.069h-.118v.335z"/><path id="4" class="fil3" d="M2.5.503h-.077V.21h.071v.042a.122.122 0 0 1 .034-.039.062.062 0 0 1 .033-.009c.018 0 .035.005.051.015l-.024.067a.068.068 0 0 0-.036-.012.045.045 0 0 0-.028.009.067.067 0 0 0-.018.032.459.459 0 0 0-.006.098v.09z"/><path id="5" class="fil3" d="M2.703.3l-.07-.012a.11.11 0 0 1 .041-.063.148.148 0 0 1 .086-.02c.035 0 .06.003.077.012a.077.077 0 0 1 .036.03.16.16 0 0 1 .01.07v.09c0 .026 0 .045.003.057a.164.164 0 0 0 .014.04h-.077a.286.286 0 0 1-.01-.032A.138.138 0 0 1 2.77.5a.12.12 0 0 1-.048.01.1.1 0 0 1-.07-.025.081.081 0 0 1-.027-.062c0-.016.004-.031.012-.044A.077.077 0 0 1 2.67.35a.26.26 0 0 1 .062-.018.424.424 0 0 0 .075-.019V.305a.047.047 0 0 0-.01-.032c-.008-.006-.022-.01-.043-.01a.054.054 0 0 0-.032.009.057.057 0 0 0-.019.029zm.104.063a.485.485 0 0 1-.047.012.146.146 0 0 0-.042.014.032.032 0 0 0-.015.027c0 .01.004.02.012.028a.042.042 0 0 0 .03.012.068.068 0 0 0 .04-.014.049.049 0 0 0 .019-.025.155.155 0 0 0 .003-.038V.363z"/><path id="6" class="fil3" d="M3.228.503h-.071V.46a.12.12 0 0 1-.043.038.107.107 0 0 1-.05.013.112.112 0 0 1-.086-.041.166.166 0 0 1-.036-.114c0-.05.012-.087.035-.113a.114.114 0 0 1 .174.002V.1h.077v.404zM3.022.351c0 .032.004.054.013.068a.058.058 0 0 0 .097.008c.013-.015.019-.038.019-.068 0-.034-.006-.058-.018-.073a.057.057 0 0 0-.047-.022.058.058 0 0 0-.046.022C3.028.3 3.022.322 3.022.35z"/><path id="7" class="fil3" d="M3.474.41l.077.014a.127.127 0 0 1-.047.065.138.138 0 0 1-.08.022c-.051 0-.089-.017-.113-.05A.168.168 0 0 1 3.28.36c0-.049.013-.087.039-.114a.125.125 0 0 1 .096-.042.13.13 0 0 1 .103.043c.025.03.037.073.036.133H3.36c0 .023.007.04.019.053.012.013.027.02.044.02a.047.047 0 0 0 .03-.01.06.06 0 0 0 .02-.032zm.004-.078c0-.022-.006-.04-.017-.05a.053.053 0 0 0-.04-.018.054.054 0 0 0-.042.018.072.072 0 0 0-.016.05h.115z"/><path id="8" class="fil2" d="M.921.718L.934.717V.72a.02.02 0 0 0 .003.011.018.018 0 0 0 .009.009.037.037 0 0 0 .014 0C.969.741.975.74.979.736S.985.728.985.724A.013.013 0 0 0 .982.715a.063.063 0 0 0-.019-.01.135.135 0 0 1-.016-.008.032.032 0 0 1-.01-.01.023.023 0 0 1-.003-.012C.934.67.935.665.938.66A.026.026 0 0 1 .95.65.05.05 0 0 1 .97.648a.04.04 0 0 1 .02.004c.006.003.01.007.013.011a.027.027 0 0 1 .004.013v.002L.993.68V.673A.018.018 0 0 0 .987.666.02.02 0 0 0 .98.66.034.034 0 0 0 .969.659.026.026 0 0 0 .95.664a.012.012 0 0 0-.004.01c0 .003 0 .005.002.007a.02.02 0 0 0 .007.006.265.265 0 0 0 .017.008.113.113 0 0 1 .015.007.023.023 0 0 1 .011.02.03.03 0 0 1-.005.016.032.032 0 0 1-.014.01.05.05 0 0 1-.02.004.048.048 0 0 1-.028-.007C.925.74.922.731.922.718z"/><path id="9" class="fil2" d="M1.06.737c-.009.01-.018.015-.027.015A.02.02 0 0 1 1.02.747a.016.016 0 0 1-.005-.011L1.017.72l.01-.043h.012l-.01.048a.045.045 0 0 0-.002.01c0 .002 0 .004.002.005l.008.002c.004 0 .007 0 .01-.002a.028.028 0 0 0 .01-.007.036.036 0 0 0 .005-.01.089.089 0 0 0 .004-.014l.007-.032h.012l-.016.074h-.012L1.06.737z"/><path id="10" class="fil2" d="M1.083.779l.02-.102h.012l-.002.01a.046.046 0 0 1 .012-.009.023.023 0 0 1 .01-.002c.007 0 .013.002.018.008a.033.033 0 0 1 .007.021.055.055 0 0 1-.013.036.039.039 0 0 1-.012.009.027.027 0 0 1-.011.002.02.02 0 0 1-.02-.013l-.009.04h-.012zM1.107.72l.001.011a.016.016 0 0 0 .015.01c.007 0 .013-.004.018-.012a.05.05 0 0 0 .006-.025.021.021 0 0 0-.004-.014.014.014 0 0 0-.011-.005.02.02 0 0 0-.01.002.026.026 0 0 0-.007.008.045.045 0 0 0-.005.012.044.044 0 0 0-.003.013z"/><path id="11" class="fil2" d="M1.161.779l.021-.102h.012l-.002.01a.046.046 0 0 1 .011-.009.023.023 0 0 1 .01-.002c.008 0 .014.002.018.008.005.005.007.012.007.021a.055.055 0 0 1-.013.036.039.039 0 0 1-.011.009.027.027 0 0 1-.012.002c-.008 0-.015-.004-.02-.013l-.008.04H1.16zM1.186.72v.011a.016.016 0 0 0 .015.01c.008 0 .014-.004.018-.012a.05.05 0 0 0 .007-.025.021.021 0 0 0-.005-.014.014.014 0 0 0-.01-.005c-.004 0-.007 0-.01.002a.026.026 0 0 0-.007.008.045.045 0 0 0-.006.012.044.044 0 0 0-.002.013z"/><path id="12" class="fil2" d="M1.248.723c0-.014.004-.026.012-.036a.035.035 0 0 1 .028-.011c.008 0 .015.003.02.008a.03.03 0 0 1 .009.022.054.054 0 0 1-.005.024.038.038 0 0 1-.034.022.033.033 0 0 1-.016-.003.025.025 0 0 1-.01-.01.031.031 0 0 1-.004-.016zM1.26.722c0 .007.002.012.005.015a.017.017 0 0 0 .013.006.02.02 0 0 0 .008-.002.023.023 0 0 0 .007-.005.033.033 0 0 0 .006-.007.043.043 0 0 0 .004-.01.043.043 0 0 0 .002-.013A.022.022 0 0 0 1.3.691a.016.016 0 0 0-.013-.005c-.004 0-.007 0-.01.002a.028.028 0 0 0-.01.008.036.036 0 0 0-.005.013.052.052 0 0 0-.002.013z"/><path id="13" class="fil2" d="M1.324.75l.015-.073h.011l-.003.015A.052.052 0 0 1 1.358.68.018.018 0 0 1 1.37.676c.003 0 .006 0 .01.003L1.374.69a.012.012 0 0 0-.008-.002c-.004 0-.008.002-.013.007a.056.056 0 0 0-.011.026l-.006.03h-.012z"/><path id="14" class="fil2" d="M1.4.74l-.002.01a.034.034 0 0 1-.009.002.018.018 0 0 1-.012-.004.01.01 0 0 1-.003-.007c0-.002 0-.006.002-.011l.009-.043h-.01l.002-.01h.01L1.39.66l.015-.01-.006.026h.013l-.003.01h-.012l-.008.04a.074.074 0 0 0-.002.01c0 .001 0 .002.002.003l.004.001a.03.03 0 0 0 .007 0z"/><path id="15" class="fil2" d="M1.45.75l.022-.1h.045l.012.004a.02.02 0 0 1 .007.008.024.024 0 0 1 .003.012c0 .005-.002.01-.005.014a.028.028 0 0 1-.014.01c.006.002.01.004.012.008a.02.02 0 0 1 .005.013.03.03 0 0 1-.005.016.033.033 0 0 1-.013.012A.039.039 0 0 1 1.5.75h-.05zm.026-.057h.022c.01 0 .017-.002.022-.005a.016.016 0 0 0 .006-.014c0-.002 0-.005-.002-.007A.012.012 0 0 0 1.52.663.041.041 0 0 0 1.505.66h-.022l-.007.032zm-.01.046h.037a.029.029 0 0 0 .01-.004.019.019 0 0 0 .01-.016c0-.005-.002-.009-.005-.011S1.51.704 1.501.704h-.027L1.466.74z"/><path id="16" class="fil2" d="M1.539.779V.767l.008.001a.01.01 0 0 0 .006-.002.029.029 0 0 0 .007-.008l.004-.007-.012-.074h.012l.005.037a.478.478 0 0 1 .003.022l.033-.059h.013L1.57.76a.053.053 0 0 1-.012.016.02.02 0 0 1-.012.004H1.54z"/><path id="17" class="fil2" d="M1.655.75l.02-.1h.046l.012.004a.02.02 0 0 1 .007.008.024.024 0 0 1 .003.012c0 .005-.002.01-.005.014a.028.028 0 0 1-.014.01c.005.002.01.004.012.008A.02.02 0 0 1 1.74.72a.03.03 0 0 1-.004.016.033.033 0 0 1-.013.012.039.039 0 0 1-.018.004h-.05zM1.68.694h.022c.01 0 .017-.002.022-.005A.016.016 0 0 0 1.73.674c0-.002 0-.005-.002-.007a.012.012 0 0 0-.006-.004A.041.041 0 0 0 1.71.66h-.022L1.68.693zM1.67.74h.037a.029.029 0 0 0 .01-.004.019.019 0 0 0 .01-.016c0-.005-.002-.009-.005-.011S1.713.704 1.704.704h-.026L1.67.74z"/><path id="18" class="fil2" d="M1.765.664L1.768.65h.013l-.003.014h-.013zM1.747.75l.015-.074h.013L1.759.75h-.012z"/><path id="19" class="fil2" d="M1.779.75l.015-.073h.011L1.803.69a.06.06 0 0 1 .014-.01.028.028 0 0 1 .013-.004.02.02 0 0 1 .014.005.017.017 0 0 1 .005.013c0 .002 0 .007-.002.012l-.01.045h-.012l.01-.047a.051.051 0 0 0 .002-.01.005.005 0 0 0-.003-.005.01.01 0 0 0-.007-.003.025.025 0 0 0-.018.007.043.043 0 0 0-.01.024L1.79.75h-.012z"/><path id="20" class="fil2" d="M1.906.742a.05.05 0 0 1-.012.008.033.033 0 0 1-.013.002.023.023 0 0 1-.016-.006.02.02 0 0 1-.006-.015.02.02 0 0 1 .01-.018.032.032 0 0 1 .011-.004.127.127 0 0 1 .016-.002.058.058 0 0 0 .017-.002.033.033 0 0 0 .001-.009.008.008 0 0 0-.003-.006A.02.02 0 0 0 1.9.686a.022.022 0 0 0-.013.004.02.02 0 0 0-.008.01L1.866.698a.033.033 0 0 1 .012-.016.036.036 0 0 1 .021-.006c.01 0 .016.002.022.006a.015.015 0 0 1 .006.013l-.002.014-.004.018a.069.069 0 0 0-.002.014l.001.01h-.012a.048.048 0 0 1-.002-.01zm.005-.028a.113.113 0 0 1-.016.003.076.076 0 0 0-.015.002.013.013 0 0 0-.007.005.012.012 0 0 0-.002.007.01.01 0 0 0 .004.008c.002.003.005.004.01.004A.024.024 0 0 0 1.906.73.053.053 0 0 0 1.91.713z"/><path id="21" class="fil2" d="M1.936.75L1.95.678h.011l-.003.015A.052.052 0 0 1 1.97.68a.018.018 0 0 1 .011-.004c.003 0 .006 0 .01.003L1.984.69a.012.012 0 0 0-.007-.002.017.017 0 0 0-.013.007.056.056 0 0 0-.011.026l-.006.03h-.012z"/><path id="22" class="fil2" d="M1.978.779V.767l.008.001a.01.01 0 0 0 .006-.002A.029.029 0 0 0 2 .758l.004-.007L1.99.677h.012l.005.037a.478.478 0 0 1 .003.022l.033-.059h.013L2.01.76a.053.053 0 0 1-.012.016.02.02 0 0 1-.012.004h-.008z"/><path id="23" class="fil2" d="M2.046.75L2.05.738h.014L2.06.75z"/><path id="24" class="fil2" d="M2.132.724l.013.001a.042.042 0 0 1-.014.02.031.031 0 0 1-.02.007.026.026 0 0 1-.019-.007.03.03 0 0 1-.007-.022A.06.06 0 0 1 2.09.7a.035.035 0 0 1 .034-.024c.007 0 .014.002.018.007.005.004.007.01.007.017l-.012.001a.015.015 0 0 0-.004-.01.014.014 0 0 0-.01-.005.02.02 0 0 0-.014.005.031.031 0 0 0-.008.014.06.06 0 0 0-.003.019c0 .006.001.01.004.014a.013.013 0 0 0 .01.005.018.018 0 0 0 .012-.005.03.03 0 0 0 .008-.014z"/><path id="25" class="fil2" d="M2.155.723c0-.014.004-.026.012-.036a.035.035 0 0 1 .027-.011c.01 0 .016.003.022.008a.03.03 0 0 1 .008.022.054.054 0 0 1-.005.024.038.038 0 0 1-.035.022A.033.033 0 0 1 2.17.75a.025.025 0 0 1-.01-.01.031.031 0 0 1-.004-.016zm.012-.001c0 .007.002.012.005.015a.017.017 0 0 0 .013.006.02.02 0 0 0 .008-.002A.023.023 0 0 0 2.2.736.033.033 0 0 0 2.206.73.043.043 0 0 0 2.21.72a.043.043 0 0 0 .002-.013.022.022 0 0 0-.005-.015.016.016 0 0 0-.013-.005c-.004 0-.007 0-.01.002a.028.028 0 0 0-.01.008.036.036 0 0 0-.005.013.052.052 0 0 0-.002.013z"/><path id="26" class="fil2" d="M2.23.75l.016-.073h.013L2.256.69a.05.05 0 0 1 .012-.011.025.025 0 0 1 .012-.003c.005 0 .009.001.012.004a.017.017 0 0 1 .006.01.041.041 0 0 1 .012-.01.026.026 0 0 1 .013-.004c.006 0 .01.001.013.004a.016.016 0 0 1 .005.012l-.002.012-.01.047h-.012l.01-.049.001-.008c0-.002 0-.004-.002-.006A.01.01 0 0 0 2.32.686a.023.023 0 0 0-.012.004.024.024 0 0 0-.009.008.06.06 0 0 0-.006.017l-.007.036h-.012l.01-.05a.04.04 0 0 0 .001-.007c0-.002 0-.004-.002-.006a.008.008 0 0 0-.006-.002.022.022 0 0 0-.011.004.027.027 0 0 0-.01.009.056.056 0 0 0-.006.017l-.007.035h-.012z"/><path fill="none" d="M0 0h3.585v.852H0z"/></g></g></svg>